:FULLY-SPECIFIED
:FORCE-ALL-JOINTS-BE-3DOF
:DEGREES
3058
root -1.64903 15.9803 -34.0554 7.72478 0.234582 0.561659
lfemur -35.4412 3.87821 -3.67706
ltibia 58.9869 -0 0
lfoot -8.76139 2.277 0.454733
ltoes -36.5518 0 0
rfemur -35.5378 -6.14841 25.3277
rtibia 60.5216 -0 0
rfoot -19.4809 -28.022 0.0319701
rtoes -7.98407 0 0
lowerback 12.6005 0.407266 -1.2259
upperback -1.32332 0.485614 1.55561
thorax -8.51988 0.333962 2.26799
lowerneck 3.32743 -8.85114 -11.451
upperneck -2.80525 -12.1168 9.11939
head -0.0587614 -6.10174 4.80715
lclavicle -3.42904e-14 -1.03368e-14 0
lhumerus 13.8525 -42.777 87.0813
lradius 68.3409 -0 0
lwrist -5.83459 0 0
lhand -28.2786 31.8695 0.00321876
lfingers 7.12502 -0 0
lthumb -1.65501 61.8433 0.00310995
rclavicle -3.42904e-14 -1.03368e-14 0
rhumerus 20.4121 48.5384 -52.1557
rradius 103.628 -0 0
rwrist -43.9002 0 0
rhand -5.87036 -25.8802 -0.00250409
rfingers 7.12502 -0 0
rthumb 19.957 -54.8753 -0.00239043
3059
root -1.61281 15.9878 -34.0422 7.60044 0.94595 0.568641
lfemur -35.0662 3.74769 -3.76863
ltibia 58.2471 -0 0
lfoot -9.36749 1.8203 0.440026
ltoes -37.2093 0 0
rfemur -35.2323 -5.92464 25.0123
rtibia 60.4301 -0 0
rfoot -19.394 -27.7985 0.0309387
rtoes -8.55397 0 0
lowerback 12.5284 0.430231 -1.15697
upperback -1.33267 0.526391 1.54393
thorax -8.49013 0.34996 2.2079
lowerneck 3.22049 -8.69665 -11.3444
upperneck -2.65903 -11.9012 8.99493
head -0.0352492 -5.99197 4.76599
lclavicle -3.42904e-14 -1.03368e-14 0
lhumerus 12.2921 -43.1367 87.7479
lradius 68.6477 -0 0
lwrist -5.55684 0 0
lhand -28.2693 32.08 0.00311491
lfingers 7.12502 -0 0
lthumb -1.64604 62.0539 0.00300962
rclavicle -3.42904e-14 -1.03368e-14 0
rhumerus 17.8731 49.1549 -53.745
rradius 104.353 -0 0
rwrist -43.4619 0 0
rhand -5.88047 -25.7298 -0.00242331
rfingers 7.12502 -0 0
rthumb 19.9473 -54.726 -0.00231332
3060
root -1.5766 15.9952 -34.0291 7.47828 1.64522 0.574
lfemur -34.6975 3.61997 -3.85947
ltibia 57.5199 -0 0
lfoot -9.96313 1.37155 0.420863
ltoes -37.8557 0 0
rfemur -34.9334 -5.70306 24.7036
rtibia 60.3401 -0 0
rfoot -19.3086 -27.5789 0.0295944
rtoes -9.11417 0 0
lowerback 12.4577 0.45289 -1.08924
upperback -1.34187 0.566472 1.53245
thorax -8.46089 0.365717 2.14885
lowerneck 3.1157 -8.5446 -11.2399
upperneck -2.51589 -11.6889 8.87323
head -0.0122191 -5.88404 4.72558
lclavicle -3.42904e-14 -1.03368e-14 0
lhumerus 10.744 -43.4773 88.4199
lradius 68.9493 -0 0
lwrist -5.28382 0 0
lhand -28.2602 32.2868 0.00297958
lfingers 7.12502 -0 0
lthumb -1.63722 62.2608 0.00287886
rclavicle -3.42904e-14 -1.03368e-14 0
rhumerus 15.3225 49.7146 -55.3658
rradius 105.066 -0 0
rwrist -43.0311 0 0
rhand -5.89041 -25.582 -0.00231804
rfingers 7.12502 -0 0
rthumb 19.9377 -54.5792 -0.00221282
3061
root -1.54038 16.0027 -34.0159 7.35884 2.32893 0.5778
lfemur -34.3368 3.49567 -3.94906
ltibia 56.8089 -0 0
lfoot -10.5454 0.933017 0.397618
ltoes -38.4876 0 0
rfemur -34.6424 -5.48487 24.403
rtibia 60.2521 -0 0
rfoot -19.2251 -27.3641 0.0279634
rtoes -9.6619 0 0
lowerback 12.3885 0.475125 -1.02305
upperback -1.35087 0.605659 1.52121
thorax -8.43233 0.381152 2.09112
lowerneck 3.01355 -8.39576 -11.1381
upperneck -2.37648 -11.4811 8.75486
head 0.0102198 -5.77851 4.68612
lclavicle -3.42904e-14 -1.03368e-14 0
lhumerus 9.21666 -43.7972 89.0926
lradius 69.2442 -0 0
lwrist -5.01688 0 0
lhand -28.2513 32.4891 0.00281538
lfingers 7.12502 -0 0
lthumb -1.6286 62.4632 0.0027202
rclavicle -3.42904e-14 -1.03368e-14 0
rhumerus 12.7781 50.2156 -57.004
rradius 105.763 -0 0
rwrist -42.6099 0 0
rhand -5.90014 -25.4375 -0.0021903
rfingers 7.12502 -0 0
rthumb 19.9284 -54.4357 -0.00209088
3062
root -1.50417 16.0101 -34.0028 7.24271 2.99361 0.580128
lfemur -33.986 3.37537 -4.0369
ltibia 56.1177 -0 0
lfoot -11.1112 0.506935 0.37075
ltoes -39.1019 0 0
rfemur -34.3606 -5.2713 24.1119
rtibia 60.1666 -0 0
rfoot -19.1439 -27.1553 0.0260776
rtoes -10.1944 0 0
lowerback 12.3213 0.496818 -0.958726
upperback -1.35963 0.643753 1.51028
thorax -8.40457 0.396184 2.035
lowerneck 2.91454 -8.25089 -11.0393
upperneck -2.24147 -11.2788 8.64036
head 0.0319601 -5.67589 4.6478
lclavicle -3.42904e-14 -1.03368e-14 0
lhumerus 7.71924 -44.0957 89.7611
lradius 69.5309 -0 0
lwrist -4.75738 0 0
lhand -28.2426 32.6857 0.00262553
lfingers 7.12502 -0 0
lthumb -1.62021 62.6599 0.00253678
rclavicle -3.42904e-14 -1.03368e-14 0
rhumerus 10.2592 50.6569 -58.6447
rradius 106.441 -0 0
rwrist -42.2004 0 0
rhand -5.90959 -25.297 -0.00204262
rfingers 7.12502 -0 0
rthumb 19.9193 -54.2961 -0.0019499
3063
root -1.46795 16.0176 -33.9897 7.13047 3.63581 0.581096
lfemur -33.6469 3.25965 -4.12245
ltibia 55.4498 -0 0
lfoot -11.6576 0.0955447 0.340796
ltoes -39.6954 0 0
rfemur -34.0896 -5.06361 23.8318
rtibia 60.0839 -0 0
rfoot -19.0654 -26.9535 0.0239747
rtoes -10.7088 0 0
lowerback 12.2564 0.517848 -0.896602
upperback -1.3681 0.680556 1.49971
thorax -8.37777 0.410734 1.98079
lowerneck 2.81915 -8.11075 -10.9442
upperneck -2.11151 -11.083 8.53027
head 0.0528957 -5.57674 4.61082
lclavicle -3.42904e-14 -1.03368e-14 0
lhumerus 6.26087 -44.372 90.4204
lradius 69.8079 -0 0
lwrist -4.50665 0 0
lhand -28.2342 32.8757 0.00241381
lfingers 7.12502 -0 0
lthumb -1.61211 62.85 0.00233222
rclavicle -3.42904e-14 -1.03368e-14 0
rhumerus 7.78579 51.0388 -60.2717
rradius 107.096 -0 0
rwrist -41.8048 0 0
rhand -5.91872 -25.1612 -0.00187792
rfingers 7.12502 -0 0
rthumb 19.9105 -54.1613 -0.00179268
3064
root -1.43173 16.0251 -33.9765 7.02269 4.25205 0.58084
lfemur -33.3215 3.14909 -4.20518
ltibia 54.809 -0 0
lfoot -12.1818 -0.298933 0.308367
ltoes -40.265 0 0
rfemur -33.8305 -4.86307 23.564
rtibia 60.0046 -0 0
rfoot -18.9902 -26.76 0.0216971
rtoes -11.2025 0 0
lowerback 12.1941 0.538095 -0.837011
upperback -1.37624 0.715871 1.48957
thorax -8.35206 0.42472 1.92878
lowerneck 2.72787 -7.97614 -10.8532
upperneck -1.98725 -10.895 8.42512
head 0.0729214 -5.48158 4.57538
lclavicle -3.42904e-14 -1.03368e-14 0
lhumerus 4.85095 -44.6257 91.065
lradius 70.0737 -0 0
lwrist -4.26606 0 0
lhand -28.2262 33.058 0.00218451
lfingers 7.12502 -0 0
lthumb -1.60434 63.0323 0.00211067
rclavicle -3.42904e-14 -1.03368e-14 0
rhumerus 5.37873 51.3631 -61.8683
rradius 107.724 -0 0
rwrist -41.4251 0 0
rhand -5.92748 -25.031 -0.00169954
rfingers 7.12502 -0 0
rthumb 19.9021 -54.032 -0.0016224
3065
root -1.39552 16.0325 -33.9634 6.91996 4.83888 0.579514
lfemur -33.0114 3.04424 -4.28454
ltibia 54.1987 -0 0
lfoot -12.6807 -0.674291 0.274132
ltoes -40.8074 0 0
rfemur -33.5848 -4.67099 23.3099
rtibia 59.9291 -0 0
rfoot -18.9185 -26.5756 0.019292
rtoes -11.6726 0 0
lowerback 12.1348 0.557435 -0.780284
upperback -1.38399 0.749499 1.4799
thorax -8.32759 0.43806 1.87925
lowerneck 2.64117 -7.84782 -10.7668
upperneck -1.86931 -10.7157 8.32544
head 0.0919333 -5.39095 4.54167
lclavicle -3.42904e-14 -1.03368e-14 0
lhumerus 3.49904 -44.8567 91.6894
lradius 70.3268 -0 0
lwrist -4.03695 0 0
lhand -28.2185 33.2315 0.00194236
lfingers 7.12502 -0 0
lthumb -1.59695 63.206 0.0018767
rclavicle -3.42904e-14 -1.03368e-14 0
rhumerus 3.05893 51.6323 -63.4178
rradius 108.322 -0 0
rwrist -41.0636 0 0
rhand -5.93582 -24.9069 -0.00151116
rfingers 7.12502 -0 0
rthumb 19.894 -53.9088 -0.00144257
3066
root -1.3593 16.04 -33.9503 6.82289 5.39283 0.577292
lfemur -32.7186 2.94566 -4.35997
ltibia 53.6227 -0 0
lfoot -13.1515 -1.02833 0.238818
ltoes -41.3193 0 0
rfemur -33.3536 -4.48868 23.0709
rtibia 59.8578 -0 0
rfoot -18.8509 -26.4016 0.01681
rtoes -12.1164 0 0
lowerback 12.0789 0.575746 -0.726754
upperback -1.39131 0.781242 1.47077
thorax -8.3045 0.450672 1.83251
lowerneck 2.55954 -7.72656 -10.6854
upperneck -1.75833 -10.5463 8.23175
head 0.109829 -5.30539 4.50988
lclavicle -3.42904e-14 -1.03368e-14 0
lhumerus 2.21476 -45.065 92.288
lradius 70.5657 -0 0
lwrist -3.82067 0 0
lhand -28.2113 33.3954 0.00169248
lfingers 7.12502 -0 0
lthumb -1.58996 63.37 0.00163527
rclavicle -3.42904e-14 -1.03368e-14 0
rhumerus 0.847213 51.8502 -64.9034
rradius 108.887 -0 0
rwrist -40.7223 0 0
rhand -5.9437 -24.7898 -0.00131676
rfingers 7.12502 -0 0
rthumb 19.8865 -53.7925 -0.00125699
3067
root -1.32308 16.0475 -33.9371 6.73208 5.91044 0.574361
lfemur -32.4449 2.85389 -4.4309
ltibia 53.0844 -0 0
lfoot -13.5912 -1.35888 0.203193
ltoes -41.7978 0 0
rfemur -33.1384 -4.31746 22.8482
rtibia 59.7912 -0 0
rfoot -18.7877 -26.239 0.0143052
rtoes -12.5311 0 0
lowerback 12.0266 0.592903 -0.67675
upperback -1.39816 0.810901 1.46224
thorax -8.28294 0.462473 1.78883
lowerneck 2.48343 -7.61316 -10.6095
upperneck -1.65495 -10.3879 8.14454
head 0.126505 -5.22543 4.4802
lclavicle -3.42904e-14 -1.03368e-14 0
lhumerus 1.00784 -45.251 92.8551
lradius 70.789 -0 0
lwrist -3.61858 0 0
lhand -28.2045 33.5485 0.0014403
lfingers 7.12502 -0 0
lthumb -1.58344 63.5231 0.00139161
rclavicle -3.42904e-14 -1.03368e-14 0
rhumerus -1.23605 52.0214 -66.309
rradius 109.415 -0 0
rwrist -40.4034 0 0
rhand -5.95105 -24.6804 -0.00112057
rfingers 7.12502 -0 0
rthumb 19.8794 -53.6838 -0.00106971
3068
root -1.28687 16.0549 -33.924 6.64816 6.38825 0.57092
lfemur -32.1922 2.76948 -4.49676
ltibia 52.5875 -0 0
lfoot -13.9969 -1.66377 0.168057
ltoes -42.2394 0 0
rfemur -32.9403 -4.15867 22.6433
rtibia 59.7297 -0 0
rfoot -18.7294 -26.0889 0.0118338
rtoes -12.9138 0 0
lowerback 11.9784 0.608782 -0.630605
upperback -1.40449 0.83828 1.45436
thorax -8.26304 0.473382 1.74852
lowerneck 2.41333 -7.50839 -10.5396
upperneck -1.55978 -10.2414 8.06434
head 0.14186 -5.15161 4.45282
lclavicle -3.42904e-14 -1.03368e-14 0
lhumerus -0.112029 -45.4152 93.3851
lradius 70.9951 -0 0
lwrist -3.43203 0 0
lhand -28.1983 33.6899 0.00119148
lfingers 7.12502 -0 0
lthumb -1.57741 63.6646 0.0011512
rclavicle -3.42904e-14 -1.03368e-14 0
rhumerus -3.17118 52.1514 -67.6191
rradius 109.902 -0 0
rwrist -40.1091 0 0
rhand -5.95784 -24.5794 -0.000926992
rfingers 7.12502 -0 0
rthumb 19.8729 -53.5835 -0.000884916
3069
root -1.25065 16.0624 -33.9109 6.57173 6.8228 0.567176
lfemur -31.9623 2.69296 -4.55697
ltibia 52.1356 -0 0
lfoot -14.3657 -1.94083 0.134229
ltoes -42.641 0 0
rfemur -32.7607 -4.01364 22.4575
rtibia 59.6738 -0 0
rfoot -18.6763 -25.9524 0.0094535
rtoes -13.262 0 0
lowerback 11.9345 0.623256 -0.588648
upperback -1.41024 0.863179 1.44719
thorax -8.24495 0.483316 1.71186
lowerneck 2.34971 -7.41303 -10.4762
upperneck -1.47344 -10.1082 7.99164
head 0.155793 -5.08446 4.42795
lclavicle -3.42904e-14 -1.03368e-14 0
lhumerus -1.13514 -45.5582 93.8724
lradius 71.1825 -0 0
lwrist -3.26236 0 0
lhand -28.1926 33.8184 0.000951821
lfingers 7.12502 -0 0
lthumb -1.57194 63.7932 0.000919646
rclavicle -3.42904e-14 -1.03368e-14 0
rhumerus -4.93937 52.2459 -68.8192
rradius 110.345 -0 0
rwrist -39.8414 0 0
rhand -5.96402 -24.4876 -0.000740541
rfingers 7.12502 -0 0
rthumb 19.8669 -53.4923 -0.000706928
3070
root -1.21443 16.0698 -33.8977 6.50344 7.21064 0.563338
lfemur -31.757 2.62488 -4.61097
ltibia 51.7322 -0 0
lfoot -14.6947 -2.18792 0.102531
ltoes -42.9995 0 0
rfemur -32.6009 -3.88371 22.292
rtibia 59.6239 -0 0
rfoot -18.629 -25.8306 0.00722235
rtoes -13.5727 0 0
lowerback 11.8954 0.636202 -0.551211
upperback -1.41538 0.885401 1.44079
thorax -8.22881 0.492191 1.67914
lowerneck 2.29302 -7.32786 -10.4196
upperneck -1.39655 -9.98911 7.92696
head 0.168202 -5.02453 4.40576
lclavicle -3.42904e-14 -1.03368e-14 0
lhumerus -2.05187 -45.6806 94.3113
lradius 71.3498 -0 0
lwrist -3.11094 0 0
lhand -28.1875 33.9331 0.000727182
lfingers 7.12502 -0 0
lthumb -1.56705 63.908 0.000702601
rclavicle -3.42904e-14 -1.03368e-14 0
rhumerus -6.52273 52.3109 -69.8958
rradius 110.74 -0 0
rwrist -39.6024 0 0
rhand -5.96953 -24.4056 -0.000565771
rfingers 7.12502 -0 0
rthumb 19.8616 -53.4109 -0.00054009
